# xmcd CD database file
#
# Track frame offsets:
#	183
#	13533
#	26400
#	41468
#	54865
#	68188
#	81145
#	94038
#	109153
#	123240
#	135903
#	151150
#	164000
#	178653
#	190728
#	203685
#
# Disc length: 2893 seconds
#
# Revision: 8
# Processed by: cddbd v1.5.2PL0 Copyright (c) Steve Scherf et al.
# Submitted via: CDex 1.79
#
DISCID=c10b4b10
DTITLE=Various Artist - I got the Blues for you - Vol.2 - [CD 1)
DYEAR=1991
DGENRE=Blues
TTITLE0=Lead Belly - Packing Trunk Blues
TTITLE1=Cripple Clarence Lofton - Brown Skin Girls
TTITLE2=Blind Willie McTell - Travellin' Blues
TTITLE3=Tampa Red - You Can't Get That Stuff No More
TTITLE4=Big Maceo - Country Jail Blues
TTITLE5=Memphis Slim - Diggin' My Potatoes
TTITLE6=Bessie Smith - Preachin' the Blues
TTITLE7=Trixie Smith - Freight Train Blues
TTITLE8=Victoria Spivey - Black Snakes Blues
TTITLE9=Roosevelt Sykes - Ups and Downs Blues
TTITLE10=Johnny Temple - Bow Leg Woman
TTITLE11=Big Joe Turner - Roll 'em Pete
TTITLE12=Peetie Wheatstraw - Crazy With the Blues
TTITLE13=Georgia White - Pigmeat Blues
TTITLE14=Big Joe Williams - Crawlin' King Snake
TTITLE15=Sonny Boy Williamson - Whiskey Headed Woman
EXTD=YEAR: 1991
EXTT0=
EXTT1=
EXTT2=
EXTT3=
EXTT4=
EXTT5=
EXTT6=
EXTT7=
EXTT8=
EXTT9=
EXTT10=
EXTT11=
EXTT12=
EXTT13=
EXTT14=
EXTT15=
PLAYORDER=
